<?xml version="1.0" encoding="UTF-8"?>
<svg viewBox="0 0 600 400" xmlns="http://www.w3.org/2000/svg">
  <!-- Background -->
  <rect width="600" height="400" fill="#f8fafc"/>
  
  <!-- Title -->
  <text x="300" y="30" text-anchor="middle" font-family="Arial" font-size="20" font-weight="bold" fill="#1e293b">ASL Hand Signs - Quick Reference</text>
  
  <!-- Grid of signs (3x2) -->
  
    <!-- A -->
    <g transform="translate(50, 60)">
      <rect width="160" height="140" fill="white" stroke="#e2e8f0" stroke-width="1" rx="8"/>
      <g transform="translate(80, 70) scale(0.6)">
        
      
        <!-- Palm -->
        <ellipse cx="100" cy="120" rx="35" ry="45" fill="#fdbcb4" stroke="#e09891" stroke-width="2"/>
        
        <!-- Thumb (visible on side) -->
        <ellipse cx="65" cy="110" rx="12" ry="20" fill="#fdbcb4" stroke="#e09891" stroke-width="2"/>
        
        <!-- Closed fingers (fist) -->
        <rect x="85" y="85" width="30" height="35" rx="15" fill="#fdbcb4" stroke="#e09891" stroke-width="2"/>
        
        <!-- Knuckles -->
        <circle cx="90" cy="90" r="3" fill="#e09891"/>
        <circle cx="100" cy="88" r="3" fill="#e09891"/>
        <circle cx="110" cy="90" r="3" fill="#e09891"/>
        
        <!-- Label -->
        <text x="100" y="180" text-anchor="middle" font-family="Arial" font-size="24" font-weight="bold" fill="#4f46e5">A</text>
      
    
      </g>
      <text x="80" y="130" text-anchor="middle" font-family="Arial" font-size="12" fill="#64748b">Make a fist with your thumb on the side</text>
    </g>
    <!-- B -->
    <g transform="translate(230, 60)">
      <rect width="160" height="140" fill="white" stroke="#e2e8f0" stroke-width="1" rx="8"/>
      <g transform="translate(80, 70) scale(0.6)">
        
      
        <!-- Palm -->
        <ellipse cx="100" cy="130" rx="25" ry="35" fill="#fdbcb4" stroke="#e09891" stroke-width="2"/>
        
        <!-- Four fingers up -->
        <rect x="85" y="60" width="8" height="40" rx="4" fill="#fdbcb4" stroke="#e09891" stroke-width="2"/>
        <rect x="95" y="55" width="8" height="45" rx="4" fill="#fdbcb4" stroke="#e09891" stroke-width="2"/>
        <rect x="105" y="55" width="8" height="45" rx="4" fill="#fdbcb4" stroke="#e09891" stroke-width="2"/>
        <rect x="115" y="60" width="8" height="40" rx="4" fill="#fdbcb4" stroke="#e09891" stroke-width="2"/>
        
        <!-- Thumb across palm -->
        <ellipse cx="85" cy="125" rx="8" ry="15" fill="#fdbcb4" stroke="#e09891" stroke-width="2"/>
        
        <!-- Label -->
        <text x="100" y="180" text-anchor="middle" font-family="Arial" font-size="24" font-weight="bold" fill="#4f46e5">B</text>
      
    
      </g>
      <text x="80" y="130" text-anchor="middle" font-family="Arial" font-size="12" fill="#64748b">Hold up 4 fingers straight, thumb folded across palm</text>
    </g>
    <!-- C -->
    <g transform="translate(410, 60)">
      <rect width="160" height="140" fill="white" stroke="#e2e8f0" stroke-width="1" rx="8"/>
      <g transform="translate(80, 70) scale(0.6)">
        
      
        <!-- Curved palm -->
        <path d="M 70 80 Q 100 70 130 80 Q 135 120 130 140 Q 100 150 70 140 Q 65 120 70 80" 
              fill="#fdbcb4" stroke="#e09891" stroke-width="2"/>
        
        <!-- Curved fingers -->
        <path d="M 75 75 Q 85 65 95 75" fill="none" stroke="#e09891" stroke-width="3" stroke-linecap="round"/>
        <path d="M 85 70 Q 95 60 105 70" fill="none" stroke="#e09891" stroke-width="3" stroke-linecap="round"/>
        <path d="M 95 70 Q 105 60 115 70" fill="none" stroke="#e09891" stroke-width="3" stroke-linecap="round"/>
        <path d="M 105 75 Q 115 65 125 75" fill="none" stroke="#e09891" stroke-width="3" stroke-linecap="round"/>
        
        <!-- Thumb -->
        <ellipse cx="65" cy="100" rx="8" ry="18" fill="#fdbcb4" stroke="#e09891" stroke-width="2"/>
        
        <!-- Label -->
        <text x="100" y="180" text-anchor="middle" font-family="Arial" font-size="24" font-weight="bold" fill="#4f46e5">C</text>
      
    
      </g>
      <text x="80" y="130" text-anchor="middle" font-family="Arial" font-size="12" fill="#64748b">Curve your hand like holding a cup</text>
    </g>
    <!-- L -->
    <g transform="translate(50, 220)">
      <rect width="160" height="140" fill="white" stroke="#e2e8f0" stroke-width="1" rx="8"/>
      <g transform="translate(80, 70) scale(0.6)">
        
      
        <!-- Palm -->
        <ellipse cx="100" cy="120" rx="25" ry="35" fill="#fdbcb4" stroke="#e09891" stroke-width="2"/>
        
        <!-- Index finger up -->
        <rect x="96" y="50" width="8" height="50" rx="4" fill="#fdbcb4" stroke="#e09891" stroke-width="2"/>
        
        <!-- Thumb out to side -->
        <rect x="65" y="116" width="25" height="8" rx="4" fill="#fdbcb4" stroke="#e09891" stroke-width="2"/>
        
        <!-- Folded fingers -->
        <ellipse cx="110" cy="105" rx="6" ry="12" fill="#fdbcb4" stroke="#e09891" stroke-width="2"/>
        <ellipse cx="118" cy="108" rx="6" ry="12" fill="#fdbcb4" stroke="#e09891" stroke-width="2"/>
        <ellipse cx="125" cy="112" rx="5" ry="10" fill="#fdbcb4" stroke="#e09891" stroke-width="2"/>
        
        <!-- L-shape indicator -->
        <path d="M 100 45 L 100 125 L 125 125" fill="none" stroke="#4f46e5" stroke-width="2" stroke-dasharray="5,5"/>
        
        <!-- Label -->
        <text x="100" y="180" text-anchor="middle" font-family="Arial" font-size="24" font-weight="bold" fill="#4f46e5">L</text>
      
    
      </g>
      <text x="80" y="130" text-anchor="middle" font-family="Arial" font-size="12" fill="#64748b">Index finger up, thumb out to side (like an "L")</text>
    </g>
    <!-- O -->
    <g transform="translate(230, 220)">
      <rect width="160" height="140" fill="white" stroke="#e2e8f0" stroke-width="1" rx="8"/>
      <g transform="translate(80, 70) scale(0.6)">
        
      
        <!-- Circle formed by fingers -->
        <circle cx="100" cy="100" r="35" fill="none" stroke="#fdbcb4" stroke-width="15"/>
        
        <!-- Fingertips -->
        <circle cx="100" cy="65" r="4" fill="#e09891"/>
        <circle cx="125" cy="80" r="4" fill="#e09891"/>
        <circle cx="135" cy="100" r="4" fill="#e09891"/>
        <circle cx="125" cy="120" r="4" fill="#e09891"/>
        <circle cx="100" cy="135" r="4" fill="#e09891"/>
        <circle cx="75" cy="120" r="4" fill="#e09891"/>
        <circle cx="65" cy="100" r="4" fill="#e09891"/>
        <circle cx="75" cy="80" r="4" fill="#e09891"/>
        
        <!-- Center circle to show the "O" -->
        <circle cx="100" cy="100" r="20" fill="none" stroke="#4f46e5" stroke-width="2" stroke-dasharray="3,3"/>
        
        <!-- Label -->
        <text x="100" y="180" text-anchor="middle" font-family="Arial" font-size="24" font-weight="bold" fill="#4f46e5">O</text>
      
    
      </g>
      <text x="80" y="130" text-anchor="middle" font-family="Arial" font-size="12" fill="#64748b">Make a circle with all fingers and thumb</text>
    </g>
    <!-- Y -->
    <g transform="translate(410, 220)">
      <rect width="160" height="140" fill="white" stroke="#e2e8f0" stroke-width="1" rx="8"/>
      <g transform="translate(80, 70) scale(0.6)">
        
      
        <!-- Palm -->
        <ellipse cx="100" cy="120" rx="25" ry="35" fill="#fdbcb4" stroke="#e09891" stroke-width="2"/>
        
        <!-- Thumb up -->
        <rect x="75" y="80" width="8" height="25" rx="4" fill="#fdbcb4" stroke="#e09891" stroke-width="2"/>
        
        <!-- Pinky out -->
        <rect x="125" y="95" width="8" height="30" rx="4" fill="#fdbcb4" stroke="#e09891" stroke-width="2"/>
        
        <!-- Folded fingers -->
        <ellipse cx="95" cy="105" rx="6" ry="12" fill="#fdbcb4" stroke="#e09891" stroke-width="2"/>
        <ellipse cx="105" cy="100" rx="6" ry="12" fill="#fdbcb4" stroke="#e09891" stroke-width="2"/>
        <ellipse cx="115" cy="105" rx="6" ry="12" fill="#fdbcb4" stroke="#e09891" stroke-width="2"/>
        
        <!-- Label -->
        <text x="100" y="180" text-anchor="middle" font-family="Arial" font-size="24" font-weight="bold" fill="#4f46e5">Y</text>
      
    
      </g>
      <text x="80" y="130" text-anchor="middle" font-family="Arial" font-size="12" fill="#64748b">Thumb and pinky out, other fingers folded</text>
    </g>
  
  <!-- Footer -->
  <text x="300" y="380" text-anchor="middle" font-family="Arial" font-size="12" fill="#64748b">Practice these signs for better detection accuracy</text>
</svg>